<svg width="745" height="745" viewBox="0 0 745 745" fill="none" xmlns="http://www.w3.org/2000/svg">
<path opacity="0.1" d="M318.217 514.204C408.796 514.204 482.224 440.775 482.224 350.196C482.224 259.617 408.796 186.188 318.217 186.188C227.638 186.188 154.209 259.617 154.209 350.196C154.209 440.775 227.638 514.204 318.217 514.204Z" fill="#04A0F4"/>
<path opacity="0.1" d="M318.216 596.98C454.512 596.98 565.002 486.49 565.002 350.195C565.002 213.899 454.512 103.41 318.216 103.41C181.921 103.41 71.4313 213.899 71.4313 350.195C71.4313 486.49 181.921 596.98 318.216 596.98Z" fill="#04A0F4"/>
<path d="M640.558 580.219H422.139C404.088 580.219 389.389 565.52 389.389 547.469V139.513C389.389 121.461 404.088 106.763 422.139 106.763H640.558C658.609 106.763 673.308 121.461 673.308 139.513V547.211C673.308 565.52 658.609 580.219 640.558 580.219Z" fill="white" stroke="#9E9E9E" stroke-width="7.44739" stroke-miterlimit="10"/>
<path d="M535.346 362.832H101.345V641.336H535.346V362.832Z" fill="white" stroke="#9E9E9E" stroke-width="7.44739" stroke-miterlimit="10"/>
<path opacity="0.1" d="M447.669 582.024H188.763C170.97 582.024 156.787 567.584 156.787 550.048V521.166C156.787 503.373 171.228 489.19 188.763 489.19H447.669C465.462 489.19 479.645 503.631 479.645 521.166V550.048C479.645 567.841 465.462 582.024 447.669 582.024Z" fill="#04A0F4"/>
<path d="M214.035 551.851C222.723 551.851 229.766 544.809 229.766 536.121C229.766 527.433 222.723 520.391 214.035 520.391C205.348 520.391 198.305 527.433 198.305 536.121C198.305 544.809 205.348 551.851 214.035 551.851Z" fill="#484949"/>
<path d="M283.146 551.851C291.833 551.851 298.876 544.809 298.876 536.121C298.876 527.433 291.833 520.391 283.146 520.391C274.458 520.391 267.416 527.433 267.416 536.121C267.416 544.809 274.458 551.851 283.146 551.851Z" fill="#484949"/>
<path d="M352.513 551.851C361.201 551.851 368.244 544.809 368.244 536.121C368.244 527.433 361.201 520.391 352.513 520.391C343.826 520.391 336.783 527.433 336.783 536.121C336.783 544.809 343.826 551.851 352.513 551.851Z" fill="#484949"/>
<path d="M421.882 551.851C430.569 551.851 437.612 544.809 437.612 536.121C437.612 527.433 430.569 520.391 421.882 520.391C413.194 520.391 406.151 527.433 406.151 536.121C406.151 544.809 413.194 551.851 421.882 551.851Z" fill="#484949"/>
<path d="M581.247 149.054H481.45C478.098 149.054 475.519 146.475 475.519 143.122C475.519 139.77 478.098 137.191 481.45 137.191H581.247C584.599 137.191 587.178 139.77 587.178 143.122C587.178 146.217 584.341 149.054 581.247 149.054Z" fill="#9E9E9E"/>
<path d="M436.323 268.966H625.086C637.722 268.966 648.037 258.651 648.037 246.015V209.397C648.037 196.761 637.722 186.446 625.086 186.446H436.323C423.687 186.446 413.372 196.761 413.372 209.397V246.273C413.63 258.909 423.687 268.966 436.323 268.966Z" fill="#FFBE4F"/>
<path d="M324.921 444.834C379.895 444.834 424.461 400.269 424.461 345.295C424.461 290.321 379.895 245.755 324.921 245.755C269.947 245.755 225.382 290.321 225.382 345.295C225.382 400.269 269.947 444.834 324.921 444.834Z" fill="#04A0F4"/>
<mask id="mask0_196_8125" style="mask-type:luminance" maskUnits="userSpaceOnUse" x="225" y="245" width="200" height="200">
<path d="M324.922 444.832C379.896 444.832 424.461 400.267 424.461 345.293C424.461 290.319 379.896 245.753 324.922 245.753C269.948 245.753 225.383 290.319 225.383 345.293C225.383 400.267 269.948 444.832 324.922 444.832Z" fill="white"/>
</mask>
<g mask="url(#mask0_196_8125)">
<path d="M410.794 474.488C403.316 438.385 396.611 420.076 387.585 405.893C377.528 390.421 348.647 372.37 330.853 368.244C333.432 389.905 335.237 412.34 332.4 434.001C331.627 440.448 326.985 507.753 325.438 514.2" fill="white"/>
<path d="M410.794 474.488C403.316 438.385 396.611 420.076 387.585 405.893C377.528 390.421 348.647 372.37 330.853 368.244C333.432 389.905 335.237 412.34 332.4 434.001C331.627 440.448 326.985 507.753 325.438 514.2" stroke="#484949" stroke-width="3.7237" stroke-miterlimit="10"/>
<path d="M323.117 518.585C323.117 506.207 322.602 484.03 316.67 473.2C311.255 463.4 304.808 454.117 301.714 443.286C297.072 427.298 291.915 410.278 295.525 393.517C298.104 383.202 308.161 374.95 315.123 366.956C313.06 366.698 310.739 366.698 308.676 366.44C281.342 365.151 252.46 373.145 232.088 391.969C211.716 410.536 198.306 434.776 190.57 461.337C190.054 463.4 189.539 465.463 189.023 467.269" fill="white"/>
<path d="M323.117 518.585C323.117 506.207 322.602 484.03 316.67 473.2C311.255 463.4 304.808 454.117 301.714 443.286C297.072 427.298 291.915 410.278 295.525 393.517C298.104 383.202 308.161 374.95 315.123 366.956C313.06 366.698 310.739 366.698 308.676 366.44C281.342 365.151 252.46 373.145 232.088 391.969C211.716 410.536 198.306 434.776 190.57 461.337C190.054 463.4 189.539 465.463 189.023 467.269" stroke="#484949" stroke-width="3.7237" stroke-miterlimit="10"/>
<path d="M298.361 331.368C298.361 331.111 298.619 330.595 298.619 330.337C299.135 328.016 325.438 341.941 327.243 343.231C330.338 345.294 333.174 347.357 335.237 350.451C337.042 353.546 337.558 356.898 338.074 360.508C340.395 375.981 341.942 391.453 342.974 406.925C343.489 416.725 344.005 426.524 342.716 436.323C339.879 460.563 328.275 482.482 323.891 506.207C321.828 496.666 319.249 487.124 318.218 477.583C317.186 468.557 315.123 459.274 312.544 450.506C307.387 432.713 299.651 415.693 289.078 400.479C287.015 397.384 284.436 394.29 283.147 390.679C281.858 387.327 279.279 385.522 277.216 382.685C274.379 379.075 272.832 375.465 275.926 371.081C277.989 368.244 280.826 366.181 283.405 363.861C292.43 356.124 295.783 343.489 298.361 331.368Z" fill="white"/>
<path d="M346.326 391.196C345.81 389.649 340.911 381.139 340.911 381.397C331.369 393.775 315.639 391.712 302.745 386.554C293.72 383.202 285.468 377.786 277.732 372.371C276.442 378.818 278.763 383.718 281.342 389.391C283.147 394.032 284.952 398.932 287.273 403.574C288.305 405.895 289.594 408.216 290.883 410.279C292.431 412.599 294.751 414.405 296.041 416.468C298.619 420.851 299.135 428.072 300.425 433.229C301.972 439.16 303.777 445.091 306.098 450.765C309.45 459.017 314.092 466.753 317.186 475.005C321.57 486.351 323.375 498.471 325.18 510.334C326.47 504.918 328.275 499.761 330.596 494.603C338.074 476.552 350.452 459.532 351.999 439.934C351.999 431.166 351.226 422.656 350.452 413.889C349.936 409.763 350.194 405.637 349.936 401.511C348.905 398.416 347.358 394.806 346.326 391.196Z" fill="#FFBE4F"/>
<path d="M323.89 519.615C325.18 508.011 331.369 496.664 337.3 486.865C342.973 477.582 349.162 468.556 354.319 458.757C359.993 447.926 363.087 435.291 365.924 423.17C366.182 421.881 366.44 420.334 365.924 418.787C365.15 416.981 363.345 416.208 361.54 415.692C359.735 415.176 357.93 414.145 356.125 413.371C354.319 412.598 351.999 411.566 351.999 408.987C352.256 404.346 358.703 402.025 359.993 397.641C360.766 395.32 359.993 392.741 358.961 390.678C357.93 388.615 341.168 367.985 339.879 367.47C341.426 379.074 341.942 395.32 342.715 406.667C343.231 416.466 343.747 426.265 342.457 436.064C339.621 460.304 329.306 475.003 324.922 498.47C325.18 498.47 324.148 510.848 323.89 519.615Z" fill="white" stroke="#484949" stroke-width="3.7237" stroke-miterlimit="10"/>
<path d="M265.353 405.38C269.221 405.896 282.889 404.091 282.631 410.538C282.631 412.085 281.857 413.374 281.083 414.664C279.278 417.5 277.731 420.079 275.926 422.916C275.41 423.689 274.894 424.721 274.637 425.752C274.379 428.073 276.7 430.652 277.989 432.457C279.794 435.036 281.341 437.614 283.146 440.193C284.694 442.514 286.757 444.577 288.562 446.64C292.688 451.797 297.329 456.439 301.198 461.855C310.739 473.975 319.765 487.9 322.343 503.372C322.601 505.177 323.117 511.882 323.375 518.587C323.633 518.587 323.633 518.587 323.89 518.587C324.148 518.587 323.375 506.982 323.375 505.951C321.827 483.258 316.928 461.339 311.513 439.42C309.707 432.199 307.644 424.979 305.066 417.758C298.103 399.707 286.499 383.461 282.631 364.636C282.373 363.089 273.863 367.473 273.089 367.988C270.253 370.051 267.674 372.115 266.385 375.467C262.774 383.461 260.969 391.971 260.711 400.738C260.711 401.512 260.711 402.544 260.969 403.317C261.485 404.607 262.774 405.38 264.064 405.638C264.322 405.38 264.837 405.38 265.353 405.38Z" fill="white" stroke="#484949" stroke-width="3.7237" stroke-miterlimit="10"/>
<path d="M310.997 349.677C319.765 354.834 330.338 360.765 340.653 361.797C344.263 362.055 348.389 361.797 350.967 359.218C352.257 357.929 353.03 355.866 353.804 354.061C357.414 345.035 358.962 335.236 359.735 325.695C359.993 321.826 359.477 317.958 359.993 314.09C360.767 308.933 361.798 304.033 360.767 298.618C359.219 288.045 352.257 277.73 344.005 271.541C342.2 270.252 340.137 268.704 337.816 267.931C334.979 266.641 331.627 266.384 328.532 265.868C322.344 265.352 315.897 264.063 310.223 266.641C282.889 279.535 285.983 300.165 286.499 308.675C286.757 312.801 290.109 324.405 296.556 334.72" fill="white"/>
<path d="M300.166 314.348C303.003 316.153 306.097 318.216 308.934 320.021C307.645 313.574 309.708 306.354 314.607 301.97C315.123 301.454 315.639 300.938 315.639 300.165C315.639 299.907 315.381 299.649 315.381 299.391C313.318 296.039 313.06 292.171 313.576 288.561C313.834 286.755 313.834 284.435 314.865 282.887C316.155 280.566 316.412 281.082 318.991 281.856C328.532 284.177 338.074 285.466 347.873 285.724C350.71 285.724 354.32 285.208 355.093 282.629C357.414 276.44 350.967 269.22 346.068 266.383C339.105 262.515 329.048 261.742 321.312 262C312.029 262.257 300.682 264.836 296.298 273.862C296.04 274.635 295.783 275.151 295.267 275.925C293.462 278.246 291.399 278.246 290.109 281.082C287.273 287.271 285.468 294.234 286.241 300.938C287.015 307.643 286.757 314.606 289.336 321.053C290.367 323.631 290.367 326.468 291.399 328.789C292.43 331.625 295.525 334.462 297.588 336.783C298.361 332.915 297.846 331.11 295.267 328.015C293.462 325.694 291.914 323.116 291.657 320.021C290.109 314.09 295.009 310.996 300.166 314.348Z" fill="#484949"/>
<path d="M340.567 327.01C344.632 324.95 346.466 320.396 344.664 316.839C342.861 313.282 338.105 312.069 334.039 314.129C329.974 316.188 328.14 320.742 329.942 324.299C331.745 327.856 336.501 329.07 340.567 327.01Z" stroke="#484949" stroke-width="3.7237" stroke-miterlimit="10"/>
<path d="M364.373 324.146C367.037 321.178 367.133 316.921 364.589 314.639C362.045 312.356 357.824 312.912 355.161 315.88C352.498 318.848 352.401 323.104 354.945 325.387C357.489 327.669 361.71 327.114 364.373 324.146Z" stroke="#484949" stroke-width="3.7237" stroke-miterlimit="10"/>
<path d="M345.294 321.568C345.81 320.279 346.584 319.247 347.615 318.473C348.647 317.7 349.678 317.184 350.967 317.184C352.257 317.184 353.288 318.216 353.288 319.247" stroke="#484949" stroke-width="3.7237" stroke-miterlimit="10"/>
<path d="M297.07 312.286L329.047 321.312" stroke="#484949" stroke-width="3.7237" stroke-miterlimit="10"/>
<path d="M300.94 314.863C300.166 313.832 299.392 313.058 298.619 312.284C297.845 311.511 296.556 311.253 295.266 311.511C294.493 311.769 293.719 312.284 292.945 313.058C290.367 315.895 290.367 320.278 291.14 324.147C291.656 326.21 292.172 328.273 293.461 330.078C294.751 331.883 296.556 333.172 298.619 333.172C301.197 333.172 303.776 331.109 304.034 328.53" fill="white"/>
<path d="M300.94 314.863C300.166 313.832 299.392 313.058 298.619 312.284C297.845 311.511 296.556 311.253 295.266 311.511C294.493 311.769 293.719 312.284 292.945 313.058C290.367 315.895 290.367 320.278 291.14 324.147C291.656 326.21 292.172 328.273 293.461 330.078C294.751 331.883 296.556 333.172 298.619 333.172C301.197 333.172 303.776 331.109 304.034 328.53" stroke="#484949" stroke-width="3.7237" stroke-miterlimit="10"/>
</g>
<path d="M452.052 240.084C458.888 240.084 464.43 234.543 464.43 227.707C464.43 220.87 458.888 215.329 452.052 215.329C445.216 215.329 439.674 220.87 439.674 227.707C439.674 234.543 445.216 240.084 452.052 240.084Z" fill="#484949"/>
<path d="M506.98 240.084C513.816 240.084 519.358 234.543 519.358 227.707C519.358 220.87 513.816 215.329 506.98 215.329C500.144 215.329 494.602 220.87 494.602 227.707C494.602 234.543 500.144 240.084 506.98 240.084Z" fill="#484949"/>
<path d="M561.907 240.084C568.743 240.084 574.285 234.543 574.285 227.707C574.285 220.87 568.743 215.329 561.907 215.329C555.071 215.329 549.529 220.87 549.529 227.707C549.529 234.543 555.071 240.084 561.907 240.084Z" fill="#484949"/>
<path d="M616.834 240.084C623.67 240.084 629.212 234.543 629.212 227.707C629.212 220.87 623.67 215.329 616.834 215.329C609.998 215.329 604.456 220.87 604.456 227.707C604.456 234.543 609.998 240.084 616.834 240.084Z" fill="#484949"/>
</svg>
