<svg width="745" height="745" viewBox="0 0 745 745" fill="none" xmlns="http://www.w3.org/2000/svg">
<path opacity="0.1" d="M658.945 504.53C619.001 537.641 567.787 558.271 522.814 579.777C485.301 597.885 446.589 613.394 406.951 626.195C328.841 651.105 247.069 663.741 165.53 658.558C141.728 657.062 117.539 653.658 95.9038 642.673C62.7929 625.73 39.1716 591.923 26.639 554.996C14.1063 518.068 11.7855 478.252 12.4817 438.952C12.5386 415.379 14.9139 391.868 19.5732 368.759C35.613 295.678 87.0072 235.206 148.51 198.872C189.538 174.632 228.219 165.142 274.043 159.34C311.373 155.052 348.299 147.774 384.465 137.575C417.988 127.725 451.898 130.716 486.737 131C524.98 131.309 563.609 131.954 600.769 141.676C637.929 151.398 673.954 171.047 697.446 203.282C728.262 245.521 733.548 302.769 731.588 356.304C729.809 407.286 711.423 452.052 676.687 488.052C671.082 493.868 665.159 499.369 658.945 504.53Z" fill="#04A0F4"/>
<path d="M408.42 111.761H82.7C70.4519 111.761 60.5229 121.69 60.5229 133.938V522.605C60.5229 534.853 70.4519 544.782 82.7 544.782H408.42C420.668 544.782 430.597 534.853 430.597 522.605V133.938C430.597 121.69 420.668 111.761 408.42 111.761Z" fill="white" stroke="#9E9E9E" stroke-width="7.44739" stroke-miterlimit="10"/>
<path d="M181.286 110.729H319.583V134.401C319.583 141.022 316.954 147.371 312.272 152.052C307.591 156.734 301.242 159.363 294.621 159.363H206.3C203.021 159.363 199.776 158.718 196.747 157.463C193.718 156.209 190.967 154.37 188.649 152.052C186.331 149.734 184.492 146.982 183.238 143.954C181.983 140.925 181.337 137.679 181.337 134.401V110.729H181.286Z" fill="#04A0F4"/>
<path d="M256.971 81.4634H243.872C230.755 81.4634 220.121 92.0967 220.121 105.214V118.314C220.121 131.43 230.755 142.064 243.872 142.064H256.971C270.088 142.064 280.722 131.43 280.722 118.314V105.214C280.722 92.0967 270.088 81.4634 256.971 81.4634Z" stroke="#04A0F4" stroke-width="11.1711" stroke-miterlimit="10"/>
<path d="M144.358 412.574H319.583" stroke="#9E9E9E" stroke-width="18.6185" stroke-miterlimit="10" stroke-linecap="round"/>
<path d="M144.358 452.051H255.295" stroke="#9E9E9E" stroke-width="18.6185" stroke-miterlimit="10" stroke-linecap="round"/>
<path d="M245.547 358.369C289.384 358.369 324.921 322.832 324.921 278.996C324.921 235.159 289.384 199.622 245.547 199.622C201.71 199.622 166.174 235.159 166.174 278.996C166.174 322.832 201.71 358.369 245.547 358.369Z" fill="#FFBE4F"/>
<mask id="mask0_196_8183" style="mask-type:luminance" maskUnits="userSpaceOnUse" x="166" y="199" width="159" height="160">
<path d="M245.546 358.367C289.383 358.367 324.92 322.83 324.92 278.994C324.92 235.157 289.383 199.62 245.546 199.62C201.709 199.62 166.173 235.157 166.173 278.994C166.173 322.83 201.709 358.367 245.546 358.367Z" fill="white"/>
</mask>
<g mask="url(#mask0_196_8183)">
<path d="M233.196 294.906C232.835 295.938 232.448 296.995 232.035 298.078C229.262 305.7 223.882 312.094 216.847 316.129C211.148 319.275 204.752 320.771 198.976 323.711C191.781 327.372 189.254 332.169 188.661 340.189C188.262 343.729 188.695 347.314 189.925 350.658C192.444 355.87 196.614 360.103 201.787 362.701C220.457 373.687 243.433 375.182 264.837 371.856C269.084 371.503 273.168 370.064 276.699 367.678C282.527 363.088 283.559 354.784 283.43 347.332C283.593 340.462 282.338 333.632 279.742 327.269C277.782 322.911 276.003 322.37 272.006 320.59C267.368 318.305 262.992 315.52 258.957 312.287C257.717 311.522 256.799 310.33 256.379 308.934C256.3 307.589 256.692 306.258 257.488 305.17C259.58 301.49 262.042 298.034 264.837 294.855C264.347 295.396 273.321 295.938 273.863 295.886C277.436 295.915 280.968 295.111 284.177 293.539C285.844 292.141 287.11 290.325 287.844 288.277C288.578 286.229 288.754 284.022 288.355 281.884C285.776 266.05 283.198 245.575 270.871 238.587C263.367 235.26 254.213 236.91 245.883 236.91C239.23 237.736 232.551 239.489 228.399 245.24C226.237 247.736 224.604 250.647 223.603 253.795C222.601 256.943 222.25 260.261 222.571 263.549C222.938 266.347 223.865 269.042 225.296 271.475C226.727 273.907 228.633 276.026 230.901 277.706C236.213 283.121 235.31 288.82 233.196 294.906Z" fill="white"/>
<path d="M261.536 331.705C262.649 329.552 263.157 327.136 263.006 324.717C263.006 319.095 260.427 315.769 258.08 310.998C258.906 312.545 270.613 312.932 272.625 313.577C279.881 315.694 286.442 319.709 291.63 325.207C295.842 329.423 299.398 334.247 302.177 339.519C302.177 339.519 284.126 354.321 282.656 355.455C282.358 355.657 282.118 355.932 281.96 356.255C281.82 356.673 281.82 357.126 281.96 357.544C283.881 362.92 284.646 368.64 284.203 374.332C283.978 380.828 282.956 387.271 281.16 393.518C279.06 399.584 277.279 405.755 275.822 412.007C274.289 420.928 275.578 430.105 279.51 438.259C276.622 432.276 235.413 445.711 230.668 447.259C222.64 449.94 214.706 453 206.867 456.439C200.033 459.456 190.285 463.092 184.406 467.837C187.371 446.124 184.406 365.513 185.541 344.057C185.561 339.61 186.519 335.216 188.351 331.164C193.947 320.23 206.403 318.27 217.027 315.691C217.179 315.653 217.339 315.653 217.491 315.691C217.697 315.691 217.801 316.001 217.904 316.207C221.256 324.562 228.451 329.694 236.445 333.02C242.171 335.598 248.512 336.492 254.728 335.599C256.93 335.398 259.01 334.494 260.659 333.02C261.006 332.621 261.301 332.179 261.536 331.705Z" fill="#04A0F4"/>
<path d="M274.559 241.501C275.745 237.865 271.98 230.902 269.659 228.813C264.501 223.656 256.404 223.166 249.029 223.398C239.127 223.733 228.605 227.498 224.247 237.194C223.233 240.33 221.92 243.361 220.328 246.246C216.099 252.28 206.299 253.466 203.721 260.455C200.214 269.196 209.6 279.976 204.984 288.305C202.534 292.715 196.088 292.457 192.091 295.345C190.379 296.76 189.061 298.593 188.266 300.667C187.471 302.741 187.225 304.984 187.552 307.181C188.173 310.624 189.194 313.982 190.595 317.187C191.42 319.611 191.549 322.138 192.477 324.51C201.245 323.659 209.316 321.21 218.265 322.086C221.669 322.767 225.175 322.767 228.58 322.086C242.376 317.703 229.482 288.717 239.72 279.331C241.117 278.089 242.668 277.031 244.336 276.185C249.073 273.674 254.3 272.223 259.653 271.93C259.653 264.581 257.358 253.337 262.696 247.355C265.559 244.157 272.006 245.292 274.043 242.507C274.283 242.211 274.459 241.868 274.559 241.501Z" fill="#484949"/>
</g>
<path d="M640.738 258.288H323.502C309.374 258.288 297.92 269.741 297.92 283.869V665.728C297.92 679.856 309.374 691.309 323.502 691.309H640.738C654.866 691.309 666.319 679.856 666.319 665.728V283.869C666.319 269.741 654.866 258.288 640.738 258.288Z" fill="white" stroke="#9E9E9E" stroke-width="7.44739" stroke-miterlimit="10"/>
<path d="M413.577 338.846H384.076V368.346H413.577V338.846Z" fill="#FFBE4F"/>
<path d="M443.078 338.846H413.578V368.346H443.078V338.846Z" fill="#FFBE4F"/>
<path d="M472.553 338.846H443.052V368.346H472.553V338.846Z" fill="#FFBE4F"/>
<path d="M502.054 338.846H472.553V368.346H502.054V338.846Z" fill="#FFBE4F"/>
<path d="M531.528 338.846H502.027V368.346H531.528V338.846Z" fill="#FFBE4F"/>
<path d="M561.029 338.846H531.529V368.346H561.029V338.846Z" fill="#FFBE4F"/>
<path d="M590.532 338.846H561.031V368.346H590.532V338.846Z" fill="#FFBE4F"/>
<path d="M413.577 368.348H384.076V397.849H413.577V368.348Z" fill="#FFBE4F"/>
<path d="M443.078 368.348H413.578V397.849H443.078V368.348Z" fill="#FFBE4F"/>
<path d="M472.553 368.348H443.052V397.849H472.553V368.348Z" fill="#484949"/>
<path d="M502.054 368.348H472.553V397.849H502.054V368.348Z" fill="#484949"/>
<path d="M531.528 368.348H502.027V397.849H531.528V368.348Z" fill="#484949"/>
<path d="M561.029 368.348H531.529V397.849H561.029V368.348Z" fill="#FFBE4F"/>
<path d="M590.532 368.348H561.031V397.849H590.532V368.348Z" fill="#FFBE4F"/>
<path d="M413.577 397.821H384.076V427.322H413.577V397.821Z" fill="#FFBE4F"/>
<path d="M443.078 397.821H413.578V427.322H443.078V397.821Z" fill="#484949"/>
<path d="M472.553 397.821H443.052V427.322H472.553V397.821Z" fill="#484949"/>
<path d="M502.054 397.821H472.553V427.322H502.054V397.821Z" fill="white"/>
<path d="M531.528 397.821H502.027V427.322H531.528V397.821Z" fill="white"/>
<path d="M561.029 397.821H531.529V427.322H561.029V397.821Z" fill="#FFBE4F"/>
<path d="M590.532 397.821H561.031V427.322H590.532V397.821Z" fill="#FFBE4F"/>
<path d="M413.577 427.323H384.076V456.824H413.577V427.323Z" fill="#FFBE4F"/>
<path d="M443.078 427.323H413.578V456.824H443.078V427.323Z" fill="#484949"/>
<path d="M472.553 427.323H443.052V456.824H472.553V427.323Z" fill="#484949"/>
<path d="M502.054 427.323H472.553V456.824H502.054V427.323Z" fill="white"/>
<path d="M531.528 427.323H502.027V456.824H531.528V427.323Z" fill="white"/>
<path d="M561.029 427.323H531.529V456.824H561.029V427.323Z" fill="#FFBE4F"/>
<path d="M590.532 427.323H561.031V456.824H590.532V427.323Z" fill="#FFBE4F"/>
<path d="M413.577 456.797H384.076V486.298H413.577V456.797Z" fill="#484949"/>
<path d="M443.078 456.797H413.578V486.298H443.078V456.797Z" fill="#484949"/>
<path d="M472.553 456.797H443.052V486.298H472.553V456.797Z" fill="white"/>
<path d="M502.054 456.797H472.553V486.298H502.054V456.797Z" fill="white"/>
<path d="M531.528 456.797H502.027V486.298H531.528V456.797Z" fill="#FFBE4F"/>
<path d="M561.029 456.797H531.529V486.298H561.029V456.797Z" fill="#FFBE4F"/>
<path d="M590.532 456.797H561.031V486.298H590.532V456.797Z" fill="#FFBE4F"/>
<path d="M413.577 486.299H384.076V515.8H413.577V486.299Z" fill="#484949"/>
<path d="M443.078 486.299H413.578V515.8H443.078V486.299Z" fill="#484949"/>
<path d="M472.553 486.299H443.052V515.8H472.553V486.299Z" fill="#04A0F4"/>
<path d="M502.054 486.299H472.553V515.8H502.054V486.299Z" fill="white"/>
<path d="M531.528 486.299H502.027V515.8H531.528V486.299Z" fill="#04A0F4"/>
<path d="M561.029 486.299H531.529V515.8H561.029V486.299Z" fill="#FFBE4F"/>
<path d="M590.532 486.299H561.031V515.8H590.532V486.299Z" fill="#FFBE4F"/>
<path d="M413.577 515.797H384.076V545.298H413.577V515.797Z" fill="#04A0F4"/>
<path d="M443.078 515.797H413.578V545.298H443.078V515.797Z" fill="#04A0F4"/>
<path d="M472.553 515.797H443.052V545.298H472.553V515.797Z" fill="#04A0F4"/>
<path d="M502.054 515.797H472.553V545.298H502.054V515.797Z" fill="#04A0F4"/>
<path d="M531.528 515.797H502.027V545.298H531.528V515.797Z" fill="#04A0F4"/>
<path d="M561.029 515.797H531.529V545.298H561.029V515.797Z" fill="#04A0F4"/>
<path d="M590.532 515.797H561.031V545.298H590.532V515.797Z" fill="#FFBE4F"/>
<path d="M419.173 588.827H384.076V623.923H419.173V588.827Z" fill="#484949"/>
<path d="M476.293 588.827H441.196V623.923H476.293V588.827Z" fill="#484949"/>
<path d="M533.387 588.827H498.29V623.923H533.387V588.827Z" fill="#484949"/>
<path d="M590.506 588.827H555.409V623.923H590.506V588.827Z" fill="#484949"/>
</svg>
