<svg width="745" height="745" viewBox="0 0 745 745" fill="none" xmlns="http://www.w3.org/2000/svg">
<path opacity="0.1" d="M744.739 399.109H684.784V312.825H641.255V228.68H744.327V139.998H51.4458V228.68H117.694V312.825H55.0818V399.109H0V487.792H62.6117V575.804L150.186 576.165V664.487H576.399V577.919L692.288 578.383V510.227V489.7V487.792H744.739V399.109Z" fill="#04A0F4"/>
<path d="M477.118 119.732H151.398C139.149 119.732 129.22 129.661 129.22 141.91V530.577C129.22 542.825 139.149 552.754 151.398 552.754H477.118C489.366 552.754 499.295 542.825 499.295 530.577V141.91C499.295 129.661 489.366 119.732 477.118 119.732Z" fill="white" stroke="#9E9E9E" stroke-width="7.44739" stroke-miterlimit="10"/>
<path d="M388.305 118.7H250.007V167.361H388.305V118.7Z" fill="#04A0F4"/>
<path d="M325.695 89.4312H312.595C299.478 89.4312 288.845 100.064 288.845 113.181V126.281C288.845 139.398 299.478 150.031 312.595 150.031H325.695C338.812 150.031 349.445 139.398 349.445 126.281V113.181C349.445 100.064 338.812 89.4312 325.695 89.4312Z" stroke="#04A0F4" stroke-width="11.1711" stroke-miterlimit="10"/>
<path d="M213.055 393.049H341.863" stroke="#9E9E9E" stroke-width="18.6185" stroke-miterlimit="10" stroke-linecap="round"/>
<path d="M213.055 460.021H324.018" stroke="#9E9E9E" stroke-width="18.6185" stroke-miterlimit="10" stroke-linecap="round"/>
<path opacity="0.5" d="M421.907 377.192H390.188V408.91H421.907V377.192Z" fill="white" stroke="#6B838E" stroke-width="3.7237" stroke-miterlimit="10"/>
<path opacity="0.5" d="M421.907 444.163H390.188V475.881H421.907V444.163Z" fill="white" stroke="#6B838E" stroke-width="3.7237" stroke-miterlimit="10"/>
<path d="M396.043 385.467C398.467 390.649 401.487 395.53 405.043 400.011C405.24 400.343 405.509 400.627 405.831 400.841C406.152 401.056 406.517 401.195 406.9 401.249C407.828 401.249 408.447 400.321 408.911 399.495C415.65 387.203 422.209 374.808 428.587 362.31" stroke="#04A0F4" stroke-width="11.1711" stroke-miterlimit="10" stroke-linecap="round"/>
<path d="M314.272 330.775C348.439 330.775 376.136 303.077 376.136 268.911C376.136 234.744 348.439 207.047 314.272 207.047C280.106 207.047 252.408 234.744 252.408 268.911C252.408 303.077 280.106 330.775 314.272 330.775Z" fill="#FFBE4F"/>
<path d="M616.061 373.556H585.658V286.239C585.658 267.09 578.05 248.724 564.509 235.183C550.968 221.642 532.603 214.035 513.453 214.035C494.303 214.035 475.938 221.642 462.397 235.183C448.856 248.724 441.248 267.09 441.248 286.239V373.607H410.948V286.239C410.948 259.04 421.753 232.954 440.986 213.721C460.219 194.488 486.305 183.683 513.505 183.683C540.704 183.683 566.79 194.488 586.023 213.721C605.256 232.954 616.061 259.04 616.061 286.239V373.556Z" fill="#484949"/>
<path d="M639.863 329.95H387.198C377.186 329.95 369.07 338.066 369.07 348.078V600.743C369.07 610.755 377.186 618.871 387.198 618.871H639.863C649.875 618.871 657.992 610.755 657.992 600.743V348.078C657.992 338.066 649.875 329.95 639.863 329.95Z" fill="white" stroke="#9E9E9E" stroke-width="7.44739" stroke-miterlimit="10"/>
<path d="M552.132 397.151H474.848V474.436H552.132V397.151Z" fill="#484949"/>
<path d="M528.126 402.773H498.883V546.099H528.126V402.773Z" fill="#484949"/>
<path d="M314.272 303.467C348.439 303.467 376.136 290.017 376.136 273.425C376.136 256.833 348.439 243.383 314.272 243.383C280.106 243.383 252.408 256.833 252.408 273.425C252.408 290.017 280.106 303.467 314.272 303.467Z" fill="white"/>
<path d="M314.27 297.378C327.501 297.378 338.226 286.652 338.226 273.421C338.226 260.191 327.501 249.465 314.27 249.465C301.039 249.465 290.313 260.191 290.313 273.421C290.313 286.652 301.039 297.378 314.27 297.378Z" fill="#04A0F4"/>
</svg>
