<svg width="596" height="534" viewBox="0 0 596 534" fill="none" xmlns="http://www.w3.org/2000/svg">
<path opacity="0.1" d="M242.763 405.096C331.865 405.096 404.098 332.863 404.098 243.761C404.098 154.66 331.865 82.4268 242.763 82.4268C153.661 82.4268 81.4286 154.66 81.4286 243.761C81.4286 332.863 153.661 405.096 242.763 405.096Z" fill="#04A0F4"/>
<path opacity="0.1" d="M242.763 486.526C376.838 486.526 485.526 377.838 485.526 243.763C485.526 109.689 376.838 1 242.763 1C108.689 1 0 109.689 0 243.763C0 377.838 108.689 486.526 242.763 486.526Z" fill="#04A0F4"/>
<path d="M559.851 470.039H344.992C327.235 470.039 312.776 455.58 312.776 437.823V36.5155C312.776 18.7585 327.235 4.29932 344.992 4.29932H559.851C577.608 4.29932 592.068 18.7585 592.068 36.5155V437.569C592.068 455.58 577.608 470.039 559.851 470.039Z" fill="white" stroke="#9E9E9E" stroke-width="7.44739" stroke-miterlimit="10"/>
<path d="M456.354 256.193H29.4261V530.157H456.354V256.193Z" fill="white" stroke="#9E9E9E" stroke-width="7.44739" stroke-miterlimit="10"/>
<path opacity="0.1" d="M370.106 471.811H115.42C97.917 471.811 83.9651 457.606 83.9651 440.356V411.945C83.9651 394.442 98.1707 380.49 115.42 380.49H370.106C387.609 380.49 401.561 394.695 401.561 411.945V440.356C401.561 457.859 387.609 471.811 370.106 471.811Z" fill="#04A0F4"/>
<path d="M140.28 442.132C148.826 442.132 155.753 435.204 155.753 426.658C155.753 418.112 148.826 411.184 140.28 411.184C131.734 411.184 124.806 418.112 124.806 426.658C124.806 435.204 131.734 442.132 140.28 442.132Z" fill="#484949"/>
<path d="M208.262 442.132C216.809 442.132 223.736 435.204 223.736 426.658C223.736 418.112 216.809 411.184 208.262 411.184C199.716 411.184 192.788 418.112 192.788 426.658C192.788 435.204 199.716 442.132 208.262 442.132Z" fill="#484949"/>
<path d="M276.502 442.132C285.048 442.132 291.976 435.204 291.976 426.658C291.976 418.112 285.048 411.184 276.502 411.184C267.956 411.184 261.028 418.112 261.028 426.658C261.028 435.204 267.956 442.132 276.502 442.132Z" fill="#484949"/>
<path d="M344.739 442.132C353.286 442.132 360.213 435.204 360.213 426.658C360.213 418.112 353.286 411.184 344.739 411.184C336.193 411.184 329.265 418.112 329.265 426.658C329.265 435.204 336.193 442.132 344.739 442.132Z" fill="#484949"/>
<path d="M501.506 45.8998H403.336C400.038 45.8998 397.501 43.3631 397.501 40.0654C397.501 36.7677 400.038 34.231 403.336 34.231H501.506C504.804 34.231 507.341 36.7677 507.341 40.0654C507.341 43.1094 504.55 45.8998 501.506 45.8998Z" fill="#9E9E9E"/>
<path d="M357.712 123.883H543.422C555.854 123.883 566.002 118.762 566.002 112.49V94.314C566.002 88.0419 555.854 82.9219 543.422 82.9219H357.712C345.281 82.9219 335.133 88.0419 335.133 94.314V112.618C335.386 118.89 345.281 123.883 357.712 123.883Z" fill="#FFBE4F"/>
<path d="M249.357 336.859C303.435 336.859 347.274 293.019 347.274 238.942C347.274 184.864 303.435 141.025 249.357 141.025C195.28 141.025 151.44 184.864 151.44 238.942C151.44 293.019 195.28 336.859 249.357 336.859Z" fill="white"/>
<path d="M373.375 114.722C380.1 114.722 385.551 109.271 385.551 102.546C385.551 95.821 380.1 90.3696 373.375 90.3696C366.65 90.3696 361.199 95.821 361.199 102.546C361.199 109.271 366.65 114.722 373.375 114.722Z" fill="#484949"/>
<path d="M427.408 114.722C434.133 114.722 439.585 109.271 439.585 102.546C439.585 95.821 434.133 90.3696 427.408 90.3696C420.684 90.3696 415.232 95.821 415.232 102.546C415.232 109.271 420.684 114.722 427.408 114.722Z" fill="#484949"/>
<path d="M481.438 114.722C488.163 114.722 493.614 109.271 493.614 102.546C493.614 95.821 488.163 90.3696 481.438 90.3696C474.713 90.3696 469.262 95.821 469.262 102.546C469.262 109.271 474.713 114.722 481.438 114.722Z" fill="#484949"/>
<path d="M535.47 114.722C542.195 114.722 547.647 109.271 547.647 102.546C547.647 95.821 542.195 90.3696 535.47 90.3696C528.746 90.3696 523.294 95.821 523.294 102.546C523.294 109.271 528.746 114.722 535.47 114.722Z" fill="#484949"/>
<path d="M515.713 241.732H340.68V272.173H515.713V241.732Z" fill="white"/>
<path d="M165.647 235.391C165.647 280.923 202.558 317.834 248.09 317.834C293.622 317.834 330.533 280.923 330.533 235.391C330.533 189.859 293.622 152.948 248.09 152.948C202.558 152.948 165.647 189.859 165.647 235.391Z" fill="white"/>
<path d="M218.987 235.26C218.987 226.118 211.575 218.706 202.43 218.706C193.288 218.706 185.876 226.118 185.876 235.26C185.876 244.405 193.288 251.817 202.43 251.817C211.575 251.817 218.987 244.405 218.987 235.26Z" stroke="#9E9E9E" stroke-width="6.07551"/>
<path d="M330.357 215.034C325.494 195.22 313.655 177.823 297.007 166.03C280.361 154.234 260.022 148.834 239.715 150.815C219.412 152.797 200.5 162.03 186.447 176.819C172.396 191.61 164.143 210.968 163.202 231.348C162.261 251.728 168.696 271.765 181.326 287.787C193.956 303.809 211.936 314.742 231.971 318.588C252.008 322.431 272.759 318.928 290.422 308.717C308.085 298.507 321.476 282.272 328.145 262.993L321.141 260.571C315.056 278.168 302.831 292.982 286.713 302.299C270.592 311.619 251.653 314.818 233.369 311.31C215.081 307.802 198.672 297.822 187.145 283.198C175.618 268.576 169.746 250.289 170.605 231.69C171.464 213.091 178.995 195.423 191.82 181.925C204.645 168.425 221.905 160 240.436 158.192C258.967 156.383 277.53 161.312 292.722 172.075C307.917 182.841 318.721 198.718 323.16 216.8L330.357 215.034Z" fill="#9E9E9E"/>
<path d="M374.193 212.494H287.278V216.633H374.193V212.494Z" fill="#9E9E9E"/>
<path d="M394.888 233.189H307.972V237.328H394.888V233.189Z" fill="#9E9E9E"/>
<path d="M423.858 212.494H382.47V216.633H423.858V212.494Z" fill="#9E9E9E"/>
<path d="M447.625 226.413L430.618 212.494L427.997 215.697L445.004 229.616L447.625 226.413Z" fill="#9E9E9E"/>
<path d="M474.806 229.048H452.829V233.187H474.806V229.048Z" fill="#9E9E9E"/>
<path d="M472.59 229.049V266.298H476.729V229.049H472.59Z" fill="#9E9E9E"/>
<path d="M415.581 258.022H287.278V266.3H415.581V258.022Z" fill="#9E9E9E"/>
<path d="M473.522 258.022H423.856V266.3H473.522V258.022Z" fill="#9E9E9E"/>
<path d="M485.907 295.005C485.907 301.377 481.841 305.786 477.663 305.786C473.485 305.786 469.419 301.377 469.419 295.005C469.419 288.632 473.485 284.224 477.663 284.224C481.841 284.224 485.907 288.632 485.907 295.005Z" stroke="#9E9E9E" stroke-width="5.58554"/>
<path d="M539.177 295.005C539.177 301.377 535.111 305.786 530.933 305.786C526.755 305.786 522.689 301.377 522.689 295.005C522.689 288.632 526.755 284.224 530.933 284.224C535.111 284.224 539.177 288.632 539.177 295.005Z" stroke="#9E9E9E" stroke-width="5.58554"/>
<path d="M579.765 295.005C579.765 301.377 575.699 305.786 571.521 305.786C567.343 305.786 563.277 301.377 563.277 295.005C563.277 288.632 567.343 284.224 571.521 284.224C575.699 284.224 579.765 288.632 579.765 295.005Z" stroke="#9E9E9E" stroke-width="5.58554"/>
<path d="M579.765 330.521C579.765 336.893 575.699 341.302 571.521 341.302C567.343 341.302 563.277 336.893 563.277 330.521C563.277 324.149 567.343 319.74 571.521 319.74C575.699 319.74 579.765 324.149 579.765 330.521Z" stroke="#9E9E9E" stroke-width="5.58554"/>
<path d="M500.492 282.32H495.419V307.687H500.492V282.32Z" fill="#9E9E9E"/>
<path d="M513.176 282.32H508.103V307.687H513.176V282.32Z" fill="#9E9E9E"/>
<path d="M541.08 317.834H536.007V343.201H541.08V317.834Z" fill="#9E9E9E"/>
<path d="M553.764 317.834H548.69V343.201H553.764V317.834Z" fill="#9E9E9E"/>
<path d="M498.591 330.521C498.591 336.893 494.525 341.302 490.347 341.302C486.169 341.302 482.102 336.893 482.102 330.521C482.102 324.149 486.169 319.74 490.347 319.74C494.525 319.74 498.591 324.149 498.591 330.521Z" stroke="#9E9E9E" stroke-width="5.58554"/>
<path d="M526.494 330.521C526.494 336.893 522.427 341.302 518.249 341.302C514.071 341.302 510.005 336.893 510.005 330.521C510.005 324.149 514.071 319.74 518.249 319.74C522.427 319.74 526.494 324.149 526.494 330.521Z" stroke="#9E9E9E" stroke-width="5.58554"/>
<path d="M472.588 317.834H467.515V343.201H472.588V317.834Z" fill="#9E9E9E"/>
<path d="M553.764 282.32H548.69V307.687H553.764V282.32Z" fill="#9E9E9E"/>
<path d="M485.907 363.496C485.907 369.869 481.841 374.277 477.663 374.277C473.485 374.277 469.419 369.869 469.419 363.496C469.419 357.124 473.485 352.715 477.663 352.715C481.841 352.715 485.907 357.124 485.907 363.496Z" stroke="#9E9E9E" stroke-width="5.58554"/>
<path d="M539.177 363.496C539.177 369.869 535.111 374.277 530.933 374.277C526.755 374.277 522.689 369.869 522.689 363.496C522.689 357.124 526.755 352.715 530.933 352.715C535.111 352.715 539.177 357.124 539.177 363.496Z" stroke="#9E9E9E" stroke-width="5.58554"/>
<path d="M579.765 363.496C579.765 369.869 575.699 374.277 571.521 374.277C567.343 374.277 563.277 369.869 563.277 363.496C563.277 357.124 567.343 352.715 571.521 352.715C575.699 352.715 579.765 357.124 579.765 363.496Z" stroke="#9E9E9E" stroke-width="5.58554"/>
<path d="M579.765 399.01C579.765 405.382 575.699 409.791 571.521 409.791C567.343 409.791 563.277 405.382 563.277 399.01C563.277 392.637 567.343 388.229 571.521 388.229C575.699 388.229 579.765 392.637 579.765 399.01Z" stroke="#9E9E9E" stroke-width="5.58554"/>
<path d="M500.492 350.811H495.419V376.178H500.492V350.811Z" fill="#9E9E9E"/>
<path d="M513.176 350.811H508.103V376.178H513.176V350.811Z" fill="#9E9E9E"/>
<path d="M541.08 386.324H536.007V411.691H541.08V386.324Z" fill="#9E9E9E"/>
<path d="M553.764 386.324H548.69V411.691H553.764V386.324Z" fill="#9E9E9E"/>
<path d="M498.591 399.01C498.591 405.382 494.525 409.791 490.347 409.791C486.169 409.791 482.102 405.382 482.102 399.01C482.102 392.637 486.169 388.229 490.347 388.229C494.525 388.229 498.591 392.637 498.591 399.01Z" stroke="#9E9E9E" stroke-width="5.58554"/>
<path d="M526.494 399.01C526.494 405.382 522.427 409.791 518.249 409.791C514.071 409.791 510.005 405.382 510.005 399.01C510.005 392.637 514.071 388.229 518.249 388.229C522.427 388.229 526.494 392.637 526.494 399.01Z" stroke="#9E9E9E" stroke-width="5.58554"/>
<path d="M472.588 386.324H467.515V411.691H472.588V386.324Z" fill="#9E9E9E"/>
<path d="M552.457 351.028H547.383V376.395H552.457V351.028Z" fill="#9E9E9E"/>
<path d="M559.32 151.461C559.32 157.833 563.387 162.242 567.565 162.242C571.743 162.242 575.809 157.833 575.809 151.461C575.809 145.089 571.743 140.68 567.565 140.68C563.387 140.68 559.32 145.089 559.32 151.461Z" stroke="#9E9E9E" stroke-width="5.58554"/>
<path d="M506.051 151.461C506.051 157.833 510.117 162.242 514.295 162.242C518.473 162.242 522.539 157.833 522.539 151.461C522.539 145.089 518.473 140.68 514.295 140.68C510.117 140.68 506.051 145.089 506.051 151.461Z" stroke="#9E9E9E" stroke-width="5.58554"/>
<path d="M465.461 151.461C465.461 157.833 469.527 162.242 473.705 162.242C477.883 162.242 481.949 157.833 481.949 151.461C481.949 145.089 477.883 140.68 473.705 140.68C469.527 140.68 465.461 145.089 465.461 151.461Z" stroke="#9E9E9E" stroke-width="5.58554"/>
<path d="M465.461 186.976C465.461 193.349 469.527 197.757 473.705 197.757C477.883 197.757 481.949 193.349 481.949 186.976C481.949 180.604 477.883 176.195 473.705 176.195C469.527 176.195 465.461 180.604 465.461 186.976Z" stroke="#9E9E9E" stroke-width="5.58554"/>
<path d="M544.736 138.777H549.809V164.144H544.736V138.777Z" fill="#9E9E9E"/>
<path d="M532.051 138.777H537.125V164.144H532.051V138.777Z" fill="#9E9E9E"/>
<path d="M504.148 174.29H509.221V199.657H504.148V174.29Z" fill="#9E9E9E"/>
<path d="M491.464 174.29H496.538V199.657H491.464V174.29Z" fill="#9E9E9E"/>
<path d="M546.637 186.976C546.637 193.349 550.703 197.757 554.881 197.757C559.059 197.757 563.125 193.349 563.125 186.976C563.125 180.604 559.059 176.195 554.881 176.195C550.703 176.195 546.637 180.604 546.637 186.976Z" stroke="#9E9E9E" stroke-width="5.58554"/>
<path d="M518.734 186.976C518.734 193.349 522.801 197.757 526.979 197.757C531.156 197.757 535.223 193.349 535.223 186.976C535.223 180.604 531.156 176.195 526.979 176.195C522.801 176.195 518.734 180.604 518.734 186.976Z" stroke="#9E9E9E" stroke-width="5.58554"/>
<path d="M572.638 174.29H577.711V199.657H572.638V174.29Z" fill="#9E9E9E"/>
<path d="M491.464 138.777H496.538V164.144H491.464V138.777Z" fill="#9E9E9E"/>
<path d="M559.32 219.953C559.32 226.325 563.387 230.734 567.565 230.734C571.743 230.734 575.809 226.325 575.809 219.953C575.809 213.581 571.743 209.172 567.565 209.172C563.387 209.172 559.32 213.581 559.32 219.953Z" stroke="#9E9E9E" stroke-width="5.58554"/>
<path d="M506.051 219.953C506.051 226.325 510.117 230.734 514.295 230.734C518.473 230.734 522.539 226.325 522.539 219.953C522.539 213.581 518.473 209.172 514.295 209.172C510.117 209.172 506.051 213.581 506.051 219.953Z" stroke="#9E9E9E" stroke-width="5.58554"/>
<path d="M544.736 207.265H549.809V232.632H544.736V207.265Z" fill="#9E9E9E"/>
<path d="M532.051 207.265H537.125V232.632H532.051V207.265Z" fill="#9E9E9E"/>
<path d="M504.148 242.778H509.221V268.145H504.148V242.778Z" fill="#9E9E9E"/>
<path d="M491.464 242.778H496.538V268.145H491.464V242.778Z" fill="#9E9E9E"/>
<path d="M546.637 255.466C546.637 261.838 550.703 266.247 554.881 266.247C559.059 266.247 563.125 261.838 563.125 255.466C563.125 249.094 559.059 244.685 554.881 244.685C550.703 244.685 546.637 249.094 546.637 255.466Z" stroke="#9E9E9E" stroke-width="5.58554"/>
<path d="M518.734 255.466C518.734 261.838 522.801 266.247 526.979 266.247C531.156 266.247 535.223 261.838 535.223 255.466C535.223 249.094 531.156 244.685 526.979 244.685C522.801 244.685 518.734 249.094 518.734 255.466Z" stroke="#9E9E9E" stroke-width="5.58554"/>
<path d="M572.638 242.778H577.711V268.145H572.638V242.778Z" fill="#9E9E9E"/>
<path d="M492.771 207.484H497.844V232.851H492.771V207.484Z" fill="#9E9E9E"/>
<path d="M480.356 207.484H485.429V232.851H480.356V207.484Z" fill="#9E9E9E"/>
<path d="M465.461 207.484H470.535V232.851H465.461V207.484Z" fill="#9E9E9E"/>
<path d="M432.715 151.461C432.715 157.833 436.781 162.242 440.959 162.242C445.137 162.242 449.204 157.833 449.204 151.461C449.204 145.089 445.137 140.68 440.959 140.68C436.781 140.68 432.715 145.089 432.715 151.461Z" stroke="#9E9E9E" stroke-width="5.58554"/>
<path d="M379.445 151.461C379.445 157.833 383.512 162.242 387.69 162.242C391.867 162.242 395.934 157.833 395.934 151.461C395.934 145.089 391.867 140.68 387.69 140.68C383.512 140.68 379.445 145.089 379.445 151.461Z" stroke="#9E9E9E" stroke-width="5.58554"/>
<path d="M338.855 151.461C338.855 157.833 342.921 162.242 347.099 162.242C351.277 162.242 355.344 157.833 355.344 151.461C355.344 145.089 351.277 140.68 347.099 140.68C342.921 140.68 338.855 145.089 338.855 151.461Z" stroke="#9E9E9E" stroke-width="5.58554"/>
<path d="M338.855 186.976C338.855 193.349 342.921 197.757 347.099 197.757C351.277 197.757 355.344 193.349 355.344 186.976C355.344 180.604 351.277 176.195 347.099 176.195C342.921 176.195 338.855 180.604 338.855 186.976Z" stroke="#9E9E9E" stroke-width="5.58554"/>
<path d="M418.13 138.777H423.203V164.144H418.13V138.777Z" fill="#9E9E9E"/>
<path d="M405.446 138.777H410.519V164.144H405.446V138.777Z" fill="#9E9E9E"/>
<path d="M377.542 174.29H382.615V199.657H377.542V174.29Z" fill="#9E9E9E"/>
<path d="M364.858 174.29H369.932V199.657H364.858V174.29Z" fill="#9E9E9E"/>
<path d="M420.031 186.976C420.031 193.349 424.097 197.757 428.275 197.757C432.453 197.757 436.52 193.349 436.52 186.976C436.52 180.604 432.453 176.195 428.275 176.195C424.097 176.195 420.031 180.604 420.031 186.976Z" stroke="#9E9E9E" stroke-width="5.58554"/>
<path d="M392.129 186.976C392.129 193.349 396.195 197.757 400.373 197.757C404.551 197.757 408.617 193.349 408.617 186.976C408.617 180.604 404.551 176.195 400.373 176.195C396.195 176.195 392.129 180.604 392.129 186.976Z" stroke="#9E9E9E" stroke-width="5.58554"/>
<path d="M446.032 174.29H451.106V199.657H446.032V174.29Z" fill="#9E9E9E"/>
<path d="M364.858 138.777H369.932V164.144H364.858V138.777Z" fill="#9E9E9E"/>
</svg>
