<svg width="745" height="745" viewBox="0 0 745 745" fill="none" xmlns="http://www.w3.org/2000/svg">
<path opacity="0.1" d="M372.369 657.785C538.231 657.785 672.689 523.327 672.689 357.465C672.689 191.603 538.231 57.1455 372.369 57.1455C206.507 57.1455 72.0496 191.603 72.0496 357.465C72.0496 523.327 206.507 657.785 372.369 657.785Z" fill="#04A0F4"/>
<path d="M523.174 166.92C482.095 166.92 444.858 153.15 417.446 130.818C405.987 121.497 391.667 116.408 376.896 116.408C362.124 116.408 347.804 121.497 336.345 130.818C309.01 153.176 271.876 166.92 230.617 166.92C221.926 166.929 213.247 166.299 204.649 165.038C200.479 185.935 198.38 207.192 198.382 228.5C198.382 357.257 273.682 465.976 376.96 501.125C480.264 465.976 555.563 357.257 555.563 228.5C555.57 207.19 553.462 185.932 549.271 165.038C540.631 166.308 531.908 166.937 523.174 166.92Z" fill="#04A0F4"/>
<path d="M397.745 251.222C397.745 222.495 397.745 188.919 411.799 188.919C425.853 188.919 444.807 197.507 473.689 200.163C502.57 202.819 521.473 203.128 530.601 200.163C539.73 197.197 514.433 240.778 451.202 240.778C451.125 240.778 458.165 256.07 397.745 251.222Z" fill="white"/>
<path d="M360.121 251.222C360.121 222.495 360.121 188.919 346.067 188.919C332.013 188.919 313.033 197.507 284.177 200.163C255.321 202.819 236.419 203.128 227.264 200.163C223.164 198.822 249.854 240.778 306.664 240.778C306.715 240.778 299.701 256.07 360.121 251.222Z" fill="white"/>
<path d="M377.398 323.789C423.17 320.772 448.365 307.491 448.365 286.423C448.453 282.137 447.34 277.912 445.153 274.225C442.966 270.539 439.791 267.538 435.987 265.561C427.76 260.997 416.466 260.79 406.073 262.802C396.584 264.633 389.234 269.842 389.234 276.779C389.234 284.515 398.518 291.013 409.864 291.013C421.21 291.013 430.056 284.979 430.494 277.397C432.028 278.337 433.284 279.668 434.132 281.255C434.979 282.842 435.388 284.626 435.316 286.423C435.316 301.612 404.887 309.039 376.392 310.921C355.762 312.262 341.553 319.173 336.215 330.313C334.512 334.028 333.852 338.136 334.307 342.198C334.761 346.259 336.312 350.12 338.794 353.367C343.952 360.716 355.427 365.797 367.599 371.212C380.492 376.937 396.532 384.106 397.383 391.842C397.95 397.309 387.068 402.724 377.527 407.495C364.427 414.045 349.573 421.446 349.573 435.423C349.573 453.474 365.819 460.153 376.753 460.153V447.259C375.309 447.259 362.467 446.924 362.467 435.423C362.467 429.44 373.53 423.896 383.303 419.022C396.635 412.394 411.669 404.839 410.199 390.475C408.575 375.338 390.395 367.266 372.808 359.53C363.266 355.275 352.436 350.479 349.341 346.069C348.166 344.707 347.398 343.041 347.124 341.263C346.851 339.484 347.083 337.665 347.794 336.012C350.424 330.829 359.424 324.924 377.398 323.789Z" fill="white"/>
<path d="M415.46 330.313C410.097 319.173 395.836 312.262 375.284 310.921C346.789 309.039 316.334 301.612 316.334 286.423C316.262 284.623 316.673 282.836 317.526 281.249C318.379 279.661 319.641 278.331 321.182 277.397C321.672 284.979 330.723 291.013 341.812 291.013C352.9 291.013 362.442 284.644 362.442 276.779C362.442 269.842 355.092 264.633 345.602 262.802C335.288 260.79 323.915 260.997 315.663 265.561C311.863 267.542 308.691 270.545 306.505 274.23C304.318 277.916 303.203 282.138 303.285 286.423C303.285 307.491 328.505 320.772 374.278 323.789C392.329 324.975 401.226 330.829 403.676 335.909C404.383 337.564 404.611 339.385 404.333 341.163C404.055 342.942 403.282 344.606 402.103 345.966C399.034 350.376 388.203 355.172 378.636 359.427C361.075 367.163 342.895 375.286 341.27 390.372C339.723 404.736 354.834 412.291 368.166 418.919C377.94 423.792 389.003 429.233 389.003 435.319C389.003 446.434 377.063 447.104 374.691 447.156V460.049C385.624 460.049 401.896 453.448 401.896 435.319C401.896 421.343 387.043 413.942 373.917 407.392C364.35 402.621 353.493 397.206 354.086 391.739C354.912 384.002 370.977 376.885 383.871 371.109C396.043 365.693 407.544 360.613 412.675 353.264C415.171 350.048 416.749 346.215 417.239 342.173C417.729 338.132 417.115 334.033 415.46 330.313Z" fill="white"/>
<path d="M404.139 172.231C404.139 183.706 388.434 192.861 376.959 192.861C371.454 192.861 366.173 190.674 362.28 186.781C358.387 182.888 356.2 177.608 356.2 172.102C356.2 166.597 358.387 161.316 362.28 157.423C366.173 153.53 371.454 151.343 376.959 151.343C388.434 151.472 404.139 160.756 404.139 172.231Z" fill="white"/>
<path d="M383.407 175.432H370.513V298.386H383.407V175.432Z" fill="white"/>
<path d="M638.959 459.892C633.956 453.91 626.065 451.073 618.484 449.423C596.126 444.626 572.067 447.798 550.74 439.778C546.658 438.614 543.093 436.095 540.632 432.635C536.738 426.059 540.632 417.807 544.397 411.18C565.413 374.201 584.651 332.451 576.966 290.624C574.387 276.08 564.485 259.679 549.735 260.865C540.812 267.312 541.56 280.593 539.42 291.423C535.268 312.801 522.89 332.193 510.203 349.883C481.527 389.88 451.975 432.764 407.801 457.004C396.485 463.419 384.336 468.235 371.699 471.316C359.553 474.075 346.427 471.651 333.869 472.245C299.967 473.861 266.031 474.179 232.06 473.199C224.324 533.747 231.519 595.07 240.286 655.49H597.441C605.693 655.129 615.493 644.324 618.071 634.653C622.094 619.568 606.132 614.256 614.616 601.13C617.762 596.282 623.358 593.394 626.633 588.752C632.744 579.855 628.876 567.967 627.02 557.343C624.802 544.578 623.641 516.573 627.974 504.376C631.532 494.473 639.423 500.043 642.466 489.96C645.509 479.878 645.715 467.99 638.959 459.892Z" fill="white" stroke="#9E9E9E" stroke-width="7.44739" stroke-miterlimit="10"/>
<path d="M520.57 515.053C546.538 511.159 572.351 507.316 598.267 503.294C611.522 501.256 625.318 499.271 638.135 502.958C639.736 503.265 641.249 503.927 642.561 504.895C643.873 505.864 644.951 507.114 645.716 508.554C652.395 519.075 653.968 540.556 640.352 547.88C636.748 549.431 632.808 550.044 628.903 549.659C588.262 548.963 547.698 557.937 506.748 556.88C493.081 556.519 483.539 540.169 492.281 529.184C499.167 520.468 510.023 516.626 520.57 515.053Z" fill="white" stroke="#9E9E9E" stroke-width="7.44739" stroke-miterlimit="10"/>
<path d="M518.867 472.654C543.933 467.316 568.869 461.978 593.883 456.563C606.776 453.803 619.979 451.018 632.718 453.984C634.405 454.292 636.016 454.922 637.463 455.841C638.651 456.757 639.679 457.864 640.506 459.116C647.727 469.224 650.821 490.55 637.927 498.622C634.515 500.381 630.699 501.208 626.865 501.02C587.178 502.645 548.213 513.914 508.243 515.126C494.885 515.538 484.544 499.782 492.255 488.333C498.366 479.281 508.707 474.82 518.867 472.654Z" fill="white" stroke="#9E9E9E" stroke-width="7.44739" stroke-miterlimit="10"/>
<path d="M513.349 555.769C539.678 554.48 570.854 553.629 597.029 550.302C604.377 549.271 611.786 548.729 619.206 548.678C625.317 548.678 633.595 548.678 639.165 551.411C642.423 553.204 645.018 555.998 646.566 559.379C652.807 572.067 652.626 595.172 637.257 601.439C633.418 602.635 629.341 602.857 625.395 602.083C584.006 597.416 544.809 598.576 503.163 593.522C489.263 591.82 476.627 576.554 484.802 564.898C490.63 556.62 502.441 556.337 513.349 555.769Z" fill="white" stroke="#9E9E9E" stroke-width="7.44739" stroke-miterlimit="10"/>
<path d="M618.896 639.526C610.077 644.168 599.659 644.683 589.731 643.935C571.68 642.414 554.041 636.483 536.764 630.578C532.363 629.313 528.162 627.438 524.282 625.008C522.346 623.782 520.682 622.172 519.391 620.278C518.101 618.385 517.211 616.247 516.778 613.996C515.798 606.724 521.601 599.916 528.408 597.235C535.216 594.553 542.849 595.017 550.147 595.533L600.845 599.04C609.2 599.633 618.2 600.484 624.441 606.054C630.681 611.624 632.589 621.165 631.016 629.495C627.896 646.076 613.12 655.488 592.052 655.488" fill="white"/>
<path d="M618.896 639.526C610.077 644.168 599.659 644.683 589.731 643.935C571.68 642.414 554.041 636.483 536.764 630.578C532.363 629.313 528.162 627.438 524.282 625.008C522.346 623.782 520.682 622.172 519.391 620.278C518.101 618.385 517.211 616.247 516.778 613.996C515.798 606.724 521.601 599.916 528.408 597.235C535.216 594.553 542.849 595.017 550.147 595.533L600.845 599.04C609.2 599.633 618.2 600.484 624.441 606.054C630.681 611.624 632.589 621.165 631.016 629.495C627.896 646.076 613.12 655.488 592.052 655.488" stroke="#9E9E9E" stroke-width="7.44739" stroke-miterlimit="10"/>
<path d="M329.278 466.546H139.741V687.595H329.278V466.546Z" fill="white" stroke="#9E9E9E" stroke-width="7.44739" stroke-miterlimit="10"/>
</svg>
