<svg width="164" height="164" viewBox="0 0 164 164" fill="none" xmlns="http://www.w3.org/2000/svg">
<path opacity="0.25" d="M82 164C127.287 164 164 127.287 164 82C164 36.7127 127.287 0 82 0C36.7127 0 0 36.7127 0 82C0 127.287 36.7127 164 82 164Z" fill="#FFBE4F"/>
<path opacity="0.25" d="M82.0001 150.609C119.892 150.609 150.609 119.892 150.609 81.9999C150.609 44.108 119.892 13.3905 82.0001 13.3905C44.1081 13.3905 13.3906 44.108 13.3906 81.9999C13.3906 119.892 44.1081 150.609 82.0001 150.609Z" fill="#FFBE4F"/>
<path d="M81.4478 134.32C110.953 134.32 134.872 110.401 134.872 80.8955C134.872 51.3901 110.953 27.4713 81.4478 27.4713C51.9424 27.4713 28.0236 51.3901 28.0236 80.8955C28.0236 110.401 51.9424 134.32 81.4478 134.32Z" fill="#FFBE4F"/>
<mask id="mask0_196_7807" style="mask-type:luminance" maskUnits="userSpaceOnUse" x="28" y="27" width="107" height="108">
<path d="M81.4478 134.32C110.953 134.32 134.872 110.401 134.872 80.8955C134.872 51.3901 110.953 27.4713 81.4478 27.4713C51.9424 27.4713 28.0236 51.3901 28.0236 80.8955C28.0236 110.401 51.9424 134.32 81.4478 134.32Z" fill="white"/>
</mask>
<g mask="url(#mask0_196_7807)">
<path d="M73.0268 91.6633C72.7507 92.3536 72.4746 93.0438 72.1985 93.734C70.2658 98.7037 66.6766 103.121 61.983 105.744C58.1177 107.815 53.8382 108.919 49.9729 110.852C45.1413 113.337 43.4847 116.512 43.0706 121.896C42.9325 124.242 43.0706 126.727 43.8988 128.936C45.2793 132.525 48.5924 135.01 51.9056 137.081C64.4679 144.535 79.9291 145.502 94.2861 143.293C97.047 142.879 100.084 142.189 102.293 140.532C106.158 137.495 106.848 131.835 106.848 126.865C106.71 122.31 106.296 117.616 104.363 113.337C102.983 110.438 101.879 110.024 99.1177 108.919C96.0807 107.539 93.0436 105.33 90.2827 103.259C89.4544 102.707 88.6261 102.017 88.4881 101.051C88.35 100.222 88.7642 99.2559 89.1783 98.5657C90.5588 96.0808 92.2153 93.8721 94.148 91.6633C93.8719 92.0775 99.8079 92.3536 100.222 92.3536C102.569 92.2155 105.054 91.9394 107.124 90.8351C109.333 89.1785 110.438 85.7273 109.885 82.9664C108.229 72.3367 106.434 58.532 98.1514 53.8384C93.0436 51.6297 86.9696 52.734 81.3096 52.734C76.8921 53.2862 72.3366 54.3906 69.5756 58.394C66.8147 61.7071 65.1581 66.2627 65.7103 70.6802C66.2625 74.5455 67.919 77.4445 71.3702 80.2054C75.0975 83.7946 74.5453 87.5219 73.0268 91.6633Z" fill="white"/>
<path d="M92.0774 116.374C92.9056 114.993 93.0437 113.337 93.0437 111.68C93.0437 107.953 91.3871 105.606 89.7306 102.431C90.2828 103.535 98.1514 103.673 99.5319 104.087C104.364 105.468 108.919 108.229 112.37 111.956C115.131 114.855 117.754 118.03 119.411 121.619C119.411 121.619 107.263 131.559 106.296 132.387C106.158 132.525 105.882 132.663 105.882 132.939C105.744 133.215 105.882 133.492 106.02 133.768C107.401 137.909 107.677 140.67 107.539 145.087C107.401 149.367 106.71 153.784 105.468 157.926C104.226 162.067 102.569 166.071 101.879 170.35C100.774 176.286 101.741 182.636 104.364 188.02C102.431 184.017 74.6834 192.99 71.5083 194.094C65.9865 195.889 60.7407 197.96 55.3568 200.306C50.8013 202.377 44.175 204.724 40.3097 208.037C42.2424 193.404 40.3097 139.151 40.9999 124.795C41.138 121.758 41.5521 118.72 42.9326 116.098C46.6599 108.781 55.0807 107.401 62.2592 105.744C62.3972 105.744 62.5353 105.744 62.5353 105.744C62.6733 105.744 62.8114 106.02 62.8114 106.158C65.0201 111.818 69.8518 115.269 75.2356 117.478C79.1009 119.135 83.3804 119.825 87.5218 119.135C89.0403 118.859 90.4208 118.444 91.5252 117.34C91.8013 116.926 91.9393 116.65 92.0774 116.374Z" fill="#04A0F4"/>
<path d="M100.912 55.7709C101.741 53.2861 99.1178 48.5925 97.5993 47.212C94.0101 43.7608 88.6262 43.4848 83.7946 43.6228C77.1683 43.8989 69.9899 46.3837 67.0909 52.872C66.1245 54.9427 65.7104 57.1514 64.468 58.946C61.569 62.9494 55.0808 63.7777 53.1481 68.4713C50.8013 74.4073 57.1515 81.5858 53.9764 87.2457C52.3198 90.1447 48.0404 90.0066 45.2794 91.9393C42.7946 93.5959 41.9663 96.909 42.2424 99.946C42.5185 102.431 43.6229 104.502 44.4511 106.71C45.0033 108.367 45.1414 110.023 45.6936 111.68C51.6296 111.128 57.0134 109.471 63.0875 110.023C65.4343 110.3 67.7811 110.714 69.9899 109.885C79.239 106.986 70.542 87.3837 77.4444 81.1716C78.4107 80.3433 79.3771 79.6531 80.4814 79.1009C83.6565 77.4443 87.2458 76.478 90.835 76.2019C90.835 71.2322 89.3165 63.6396 92.9057 59.6363C94.8383 57.4275 99.1178 58.2558 100.498 56.3231C100.774 56.1851 100.774 55.909 100.912 55.7709Z" fill="#484949"/>
</g>
</svg>
