<svg width="164" height="164" viewBox="0 0 164 164" fill="none" xmlns="http://www.w3.org/2000/svg">
<path opacity="0.1" d="M82 164C127.287 164 164 127.287 164 82C164 36.7127 127.287 0 82 0C36.7127 0 0 36.7127 0 82C0 127.287 36.7127 164 82 164Z" fill="#3CCC79"/>
<path opacity="0.1" d="M82.0001 150.609C119.892 150.609 150.609 119.892 150.609 81.9999C150.609 44.108 119.892 13.3905 82.0001 13.3905C44.1081 13.3905 13.3906 44.108 13.3906 81.9999C13.3906 119.892 44.1081 150.609 82.0001 150.609Z" fill="#3CCC79"/>
<path d="M81.4479 134.32C110.953 134.32 134.872 110.401 134.872 80.8955C134.872 51.3901 110.953 27.4713 81.4479 27.4713C51.9425 27.4713 28.0237 51.3901 28.0237 80.8955C28.0237 110.401 51.9425 134.32 81.4479 134.32Z" fill="#3CCC79"/>
<mask id="mask0_196_7765" style="mask-type:luminance" maskUnits="userSpaceOnUse" x="28" y="27" width="107" height="108">
<path d="M81.4479 134.32C110.953 134.32 134.872 110.401 134.872 80.8955C134.872 51.3901 110.953 27.4713 81.4479 27.4713C51.9425 27.4713 28.0237 51.3901 28.0237 80.8955C28.0237 110.401 51.9425 134.32 81.4479 134.32Z" fill="white"/>
</mask>
<g mask="url(#mask0_196_7765)">
<path d="M103.811 50.8011H72.8889V181.118H103.811V50.8011Z" fill="white"/>
</g>
<mask id="mask1_196_7765" style="mask-type:luminance" maskUnits="userSpaceOnUse" x="28" y="27" width="107" height="108">
<path d="M81.4479 134.32C110.953 134.32 134.872 110.401 134.872 80.8955C134.872 51.3901 110.953 27.4713 81.4479 27.4713C51.9425 27.4713 28.0237 51.3901 28.0237 80.8955C28.0237 110.401 51.9425 134.32 81.4479 134.32Z" fill="white"/>
</mask>
<g mask="url(#mask1_196_7765)">
<path d="M69.2997 77.4443H45.6936V207.761H69.2997V77.4443Z" fill="#484949"/>
</g>
<mask id="mask2_196_7765" style="mask-type:luminance" maskUnits="userSpaceOnUse" x="28" y="27" width="107" height="108">
<path d="M81.4479 134.32C110.953 134.32 134.872 110.401 134.872 80.8955C134.872 51.3901 110.953 27.4713 81.4479 27.4713C51.9425 27.4713 28.0237 51.3901 28.0237 80.8955C28.0237 110.401 51.9425 134.32 81.4479 134.32Z" fill="white"/>
</mask>
<g mask="url(#mask2_196_7765)">
<path d="M113.061 77.4443H70.4041V207.761H113.061V77.4443Z" fill="white"/>
</g>
<mask id="mask3_196_7765" style="mask-type:luminance" maskUnits="userSpaceOnUse" x="28" y="27" width="107" height="108">
<path d="M81.4479 134.32C110.953 134.32 134.872 110.401 134.872 80.8955C134.872 51.3901 110.953 27.4713 81.4479 27.4713C51.9425 27.4713 28.0237 51.3901 28.0237 80.8955C28.0237 110.401 51.9425 134.32 81.4479 134.32Z" fill="white"/>
</mask>
<g mask="url(#mask3_196_7765)">
<path opacity="0.2" d="M97.0473 86.1413H89.5928V98.2894H97.0473V86.1413Z" fill="#3CCC79"/>
</g>
<mask id="mask4_196_7765" style="mask-type:luminance" maskUnits="userSpaceOnUse" x="28" y="27" width="107" height="108">
<path d="M81.4479 134.32C110.953 134.32 134.872 110.401 134.872 80.8955C134.872 51.3901 110.953 27.4713 81.4479 27.4713C51.9425 27.4713 28.0237 51.3901 28.0237 80.8955C28.0237 110.401 51.9425 134.32 81.4479 134.32Z" fill="white"/>
</mask>
<g mask="url(#mask4_196_7765)">
<path opacity="0.2" d="M97.0473 120.377H89.5928V132.525H97.0473V120.377Z" fill="#3CCC79"/>
</g>
<mask id="mask5_196_7765" style="mask-type:luminance" maskUnits="userSpaceOnUse" x="28" y="27" width="107" height="108">
<path d="M81.4479 134.32C110.953 134.32 134.872 110.401 134.872 80.8955C134.872 51.3901 110.953 27.4713 81.4479 27.4713C51.9425 27.4713 28.0237 51.3901 28.0237 80.8955C28.0237 110.401 51.9425 134.32 81.4479 134.32Z" fill="white"/>
</mask>
<g mask="url(#mask5_196_7765)">
<path opacity="0.2" d="M107.125 86.1413H99.6702V98.2894H107.125V86.1413Z" fill="#3CCC79"/>
</g>
<mask id="mask6_196_7765" style="mask-type:luminance" maskUnits="userSpaceOnUse" x="28" y="27" width="107" height="108">
<path d="M81.4479 134.32C110.953 134.32 134.872 110.401 134.872 80.8955C134.872 51.3901 110.953 27.4713 81.4479 27.4713C51.9425 27.4713 28.0237 51.3901 28.0237 80.8955C28.0237 110.401 51.9425 134.32 81.4479 134.32Z" fill="white"/>
</mask>
<g mask="url(#mask6_196_7765)">
<path opacity="0.2" d="M86.9699 103.397H79.5154V115.545H86.9699V103.397Z" fill="#3CCC79"/>
</g>
<mask id="mask7_196_7765" style="mask-type:luminance" maskUnits="userSpaceOnUse" x="28" y="27" width="107" height="108">
<path d="M81.4479 134.32C110.953 134.32 134.872 110.401 134.872 80.8955C134.872 51.3901 110.953 27.4713 81.4479 27.4713C51.9425 27.4713 28.0237 51.3901 28.0237 80.8955C28.0237 110.401 51.9425 134.32 81.4479 134.32Z" fill="white"/>
</mask>
<g mask="url(#mask7_196_7765)">
<path d="M72.889 50.8011H54.9429V181.118H72.889V50.8011Z" fill="#484949"/>
</g>
<mask id="mask8_196_7765" style="mask-type:luminance" maskUnits="userSpaceOnUse" x="28" y="27" width="107" height="108">
<path d="M81.4479 134.32C110.953 134.32 134.872 110.401 134.872 80.8955C134.872 51.3901 110.953 27.4713 81.4479 27.4713C51.9425 27.4713 28.0237 51.3901 28.0237 80.8955C28.0237 110.401 51.9425 134.32 81.4479 134.32Z" fill="white"/>
</mask>
<g mask="url(#mask8_196_7765)">
<path d="M45.6936 77.4443H113.199" stroke="#484949" stroke-miterlimit="10"/>
</g>
</svg>
