<svg width="164" height="164" viewBox="0 0 164 164" fill="none" xmlns="http://www.w3.org/2000/svg">
<path opacity="0.11" d="M82 164C127.287 164 164 127.287 164 82C164 36.7127 127.287 0 82 0C36.7127 0 0 36.7127 0 82C0 127.287 36.7127 164 82 164Z" fill="#04A0F4"/>
<path opacity="0.11" d="M82.0001 150.609C119.892 150.609 150.609 119.892 150.609 81.9999C150.609 44.108 119.892 13.3905 82.0001 13.3905C44.1081 13.3905 13.3906 44.108 13.3906 81.9999C13.3906 119.892 44.1081 150.609 82.0001 150.609Z" fill="#04A0F4"/>
<path d="M82.0001 134.872C111.429 134.872 135.286 111.015 135.286 81.5859C135.286 52.1567 111.429 28.2997 82.0001 28.2997C52.5709 28.2997 28.7139 52.1567 28.7139 81.5859C28.7139 111.015 52.5709 134.872 82.0001 134.872Z" fill="#04A0F4"/>
<mask id="mask0_196_7820" style="mask-type:luminance" maskUnits="userSpaceOnUse" x="28" y="28" width="108" height="107">
<path d="M82.0001 134.872C111.429 134.872 135.286 111.015 135.286 81.5859C135.286 52.1567 111.429 28.2997 82.0001 28.2997C52.5709 28.2997 28.7139 52.1567 28.7139 81.5859C28.7139 111.015 52.5709 134.872 82.0001 134.872Z" fill="white"/>
</mask>
<g mask="url(#mask0_196_7820)">
<path d="M127.97 150.609C123.966 131.283 120.377 121.481 115.545 113.889C110.162 105.606 94.7004 95.9425 85.1751 93.7338C86.5556 105.33 87.5219 117.34 86.0034 128.936C85.5893 132.387 83.1044 168.417 82.2761 171.868" fill="white"/>
<path d="M127.97 150.609C123.966 131.283 120.377 121.481 115.545 113.889C110.162 105.606 94.7004 95.9425 85.1751 93.7338C86.5556 105.33 87.5219 117.34 86.0034 128.936C85.5893 132.387 83.1044 168.417 82.2761 171.868" stroke="#484949" stroke-miterlimit="10"/>
<path d="M81.0338 174.353C81.0338 167.727 80.7577 155.855 77.5826 150.057C74.6836 144.811 71.2324 139.842 69.5759 134.044C67.091 125.485 64.3301 116.374 66.2627 107.4C67.6432 101.879 73.027 97.461 76.7543 93.1816C75.6499 93.0435 74.4075 93.0435 73.3031 92.9055C58.6701 92.2153 43.2089 96.4947 32.3031 106.572C21.3974 116.512 14.219 129.488 10.0776 143.707C9.80146 144.811 9.52536 145.916 9.24927 146.882" fill="white"/>
<path d="M81.0338 174.353C81.0338 167.727 80.7577 155.855 77.5826 150.057C74.6836 144.811 71.2324 139.842 69.5759 134.044C67.091 125.485 64.3301 116.374 66.2627 107.4C67.6432 101.879 73.027 97.461 76.7543 93.1816C75.6499 93.0435 74.4075 93.0435 73.3031 92.9055C58.6701 92.2153 43.2089 96.4947 32.3031 106.572C21.3974 116.512 14.219 129.488 10.0776 143.707C9.80146 144.811 9.52536 145.916 9.24927 146.882" stroke="#484949" stroke-miterlimit="10"/>
<path d="M67.7813 74.1311C67.7813 73.993 67.9193 73.7169 67.9193 73.5789C68.1954 72.3365 82.2762 79.791 83.2426 80.4812C84.8991 81.5856 86.4176 82.69 87.522 84.3466C88.4883 86.0031 88.7644 87.7977 89.0405 89.7304C90.283 98.0132 91.1112 106.296 91.6634 114.579C91.9395 119.825 92.2156 125.07 91.5254 130.316C90.0069 143.293 83.7947 155.027 81.4479 167.727C80.3436 162.619 78.9631 157.512 78.4109 152.404C77.8587 147.572 76.7543 142.602 75.3739 137.909C72.6129 128.384 68.4715 119.272 62.8116 111.128C61.7072 109.471 60.3267 107.815 59.6365 105.882C58.9463 104.087 57.5658 103.121 56.4614 101.602C54.9429 99.6698 54.1146 97.7371 55.7712 95.3903C56.8756 93.8718 58.3941 92.7674 59.7745 91.525C64.6062 87.2456 66.2628 80.4812 67.7813 74.1311Z" fill="white"/>
<path d="M93.4579 106.158C93.1819 105.33 90.559 100.774 90.559 100.912C85.4512 107.538 77.0303 106.434 70.128 103.673C65.2963 101.878 60.8788 98.9795 56.7374 96.0805C56.0472 99.5317 57.2896 102.155 58.6701 105.192C59.6364 107.676 60.6027 110.299 61.8452 112.784C62.3973 114.027 63.0876 115.269 63.7778 116.373C64.6061 117.616 65.8485 118.582 66.5388 119.687C67.9192 122.033 68.1953 125.899 68.8856 128.66C69.7138 131.835 70.6802 135.01 71.9226 138.047C73.7172 142.464 76.2021 146.606 77.8586 151.023C80.2054 157.097 81.1718 163.586 82.1381 169.936C82.8283 167.037 83.7946 164.276 85.0371 161.515C89.0404 151.852 95.6667 142.74 96.495 132.249C96.495 127.555 96.0808 123 95.6667 118.306C95.3906 116.097 95.5287 113.889 95.3906 111.68C94.7004 110.023 94.0101 107.953 93.4579 106.158Z" fill="#FFBE4F"/>
<path d="M81.4478 174.906C82.1381 168.693 85.4512 162.619 88.6263 157.374C91.6633 152.404 94.9765 147.572 97.7374 142.326C100.774 136.528 102.431 129.764 103.95 123.276C104.088 122.586 104.226 121.757 103.95 120.929C103.535 119.963 102.569 119.549 101.603 119.273C100.636 118.996 99.67 118.444 98.7037 118.03C97.7374 117.616 96.495 117.064 96.495 115.683C96.633 113.198 100.084 111.956 100.774 109.609C101.189 108.367 100.774 106.986 100.222 105.882C99.67 104.778 90.697 93.7338 90.0067 93.4577C90.835 99.6698 91.1111 108.367 91.5253 114.441C91.8014 119.687 92.0775 124.932 91.3872 130.178C89.8687 143.155 84.3468 151.023 82 163.586C82.1381 163.586 81.4478 170.212 81.4478 174.906Z" fill="white" stroke="#484949" stroke-miterlimit="10"/>
<path d="M50.1113 113.751C52.182 114.027 59.4985 113.06 59.3605 116.512C59.3605 117.34 58.9463 118.03 58.5322 118.72C57.5659 120.239 56.7376 121.619 55.7712 123.138C55.4952 123.552 55.2191 124.104 55.081 124.656C54.943 125.899 56.1854 127.279 56.8756 128.246C57.842 129.626 58.6702 131.007 59.6366 132.387C60.4648 133.629 61.5692 134.734 62.5356 135.838C64.7443 138.599 67.2292 141.084 69.2999 143.983C74.4076 150.471 79.2393 157.926 80.6197 166.209C80.7578 167.175 81.0339 170.764 81.1719 174.353C81.31 174.353 81.31 174.353 81.448 174.353C81.5861 174.353 81.1719 168.141 81.1719 167.589C80.3436 155.441 77.7207 143.707 74.8217 131.973C73.8554 128.108 72.751 124.242 71.3706 120.377C67.6433 110.714 61.4312 102.017 59.3605 91.9392C59.2224 91.111 54.6669 93.4578 54.2527 93.7339C52.7342 94.8382 51.3537 95.9426 50.6635 97.7372C48.7308 102.017 47.7645 106.572 47.6265 111.266C47.6265 111.68 47.6265 112.232 47.7645 112.646C48.0406 113.337 48.7308 113.751 49.4211 113.889C49.5591 113.751 49.8352 113.751 50.1113 113.751Z" fill="white" stroke="#484949" stroke-miterlimit="10"/>
<path d="M74.5456 83.7945C79.2392 86.5555 84.8991 89.7306 90.421 90.2827C92.3536 90.4208 94.5624 90.2827 95.9429 88.9023C96.6331 88.212 97.0472 87.1077 97.4614 86.1413C99.394 81.3097 100.222 76.0639 100.636 70.9562C100.775 68.8854 100.498 66.8147 100.775 64.744C101.189 61.9831 101.741 59.3602 101.189 56.4612C100.36 50.8013 96.6331 45.2794 92.2156 41.9663C91.2493 41.276 90.1449 40.4477 88.9025 40.0336C87.3839 39.3434 85.5893 39.2053 83.9328 38.9292C80.6196 38.6531 77.1685 37.9629 74.1314 39.3434C59.4984 46.2457 61.155 57.2895 61.4311 61.845C61.5691 64.0538 63.3637 70.2659 66.8149 75.7878" fill="white"/>
<path d="M68.7475 65.0202C70.266 65.9865 71.9226 67.0909 73.4411 68.0572C72.7509 64.606 73.8553 60.7407 76.4781 58.3939C76.7542 58.1178 77.0303 57.8417 77.0303 57.4276C77.0303 57.2895 76.8923 57.1515 76.8923 57.0134C75.7879 55.2188 75.6499 53.1481 75.926 51.2154C76.064 50.2491 76.064 49.0067 76.6162 48.1784C77.3064 46.936 77.4445 47.2121 78.8249 47.6262C83.9327 48.8686 89.0404 49.5589 94.2862 49.6969C95.8047 49.6969 97.7374 49.4208 98.1515 48.0404C99.394 44.7272 95.9428 40.8619 93.3199 39.3434C89.5926 37.2727 84.2088 36.8585 80.0674 36.9966C75.0977 37.1346 69.0236 38.5151 66.6768 43.3468C66.5388 43.7609 66.4007 44.037 66.1246 44.4511C65.1583 45.6936 64.0539 45.6936 63.3637 47.2121C61.8452 50.5252 60.8788 54.2525 61.293 57.8417C61.7071 61.4309 61.5691 65.1582 62.9495 68.6094C63.5017 69.9899 63.5017 71.5084 64.0539 72.7508C64.6061 74.2693 66.2627 75.7878 67.367 77.0303C67.7812 74.9595 67.5051 73.9932 66.1246 72.3367C65.1583 71.0942 64.33 69.7138 64.192 68.0572C63.3637 64.8821 65.9866 63.0875 68.7475 65.0202Z" fill="#484949"/>
<path d="M90.3888 71.7699C92.565 70.6672 93.547 68.2295 92.5821 66.3253C91.6172 64.4211 89.0707 63.7714 86.8945 64.8742C84.7183 65.977 83.7363 68.4146 84.7012 70.3188C85.6661 72.223 88.2125 72.8727 90.3888 71.7699Z" stroke="#484949" stroke-miterlimit="10"/>
<path d="M103.134 70.2125C104.559 68.6236 104.611 66.345 103.249 65.123C101.887 63.9011 99.6275 64.1986 98.2019 65.7875C96.7763 67.3764 96.7247 69.655 98.0866 70.8769C99.4485 72.0989 101.708 71.8014 103.134 70.2125Z" stroke="#484949" stroke-miterlimit="10"/>
<path d="M92.7678 68.8856C93.0439 68.1953 93.4581 67.6431 94.0102 67.229C94.5624 66.8149 95.1146 66.5388 95.8049 66.5388C96.4951 66.5388 97.0473 67.0909 97.0473 67.6431" stroke="#484949" stroke-miterlimit="10"/>
<path d="M67.0911 63.9158L84.2089 68.7475" stroke="#484949" stroke-miterlimit="10"/>
<path d="M69.1616 65.2963C68.7475 64.7441 68.3333 64.3299 67.9192 63.9158C67.505 63.5017 66.8148 63.3636 66.1246 63.5017C65.7104 63.6397 65.2963 63.9158 64.8821 64.3299C63.5017 65.8485 63.5017 68.1953 63.9158 70.266C64.1919 71.3703 64.468 72.4747 65.1582 73.4411C65.8485 74.4074 66.8148 75.0976 67.9192 75.0976C69.2997 75.0976 70.6801 73.9932 70.8182 72.6128" fill="white"/>
<path d="M69.1616 65.2963C68.7475 64.7441 68.3333 64.3299 67.9192 63.9158C67.505 63.5017 66.8148 63.3636 66.1246 63.5017C65.7104 63.6397 65.2963 63.9158 64.8821 64.3299C63.5017 65.8485 63.5017 68.1953 63.9158 70.266C64.1919 71.3703 64.468 72.4747 65.1582 73.4411C65.8485 74.4074 66.8148 75.0976 67.9192 75.0976C69.2997 75.0976 70.6801 73.9932 70.8182 72.6128" stroke="#484949" stroke-miterlimit="10"/>
</g>
</svg>
